<svg xmlns="http://www.w3.org/2000/svg" width="74.114" height="68.985" viewBox="0 0 74.114 68.985">
    <defs>
        <style>
            .cls-1,.cls-2,.cls-3{fill:#fff}.cls-1{stroke:#345e86;stroke-width:.5px}.cls-3{stroke:#335d85;stroke-width:1.5px}
        </style>
    </defs>
    <g id="Group_1549" transform="translate(-367.648 -1843.639)">
        <g id="Group_1548">
            <path id="Path_6816" d="M3.65 123.689H1.964v1.964H0v1.686h1.964v1.961H3.65v-1.964h1.964v-1.686H3.65z" class="cls-1" transform="translate(435.898 1734.353)"/>
            <path id="Path_6815" d="M3.65 123.689H1.964v1.964H0v1.686h1.964v1.961H3.65v-1.964h1.964v-1.686H3.65z" class="cls-1" transform="translate(367.898 1772.353)"/>
            <path id="Path_6817" d="M159.055 173.895v1.686h-1.686v-1.686zm0 3.372v1.686h-1.686v-1.686z" class="cls-2" transform="translate(224.309 1671.297)"/>
            <path id="Path_6818" d="M159.055 173.895v1.686h-1.686v-1.686zm0 3.372v1.686h-1.686v-1.686z" class="cls-2" transform="translate(282.309 1702.297)"/>
            <path id="Path_6819" d="M32.166 53.325h1.686v1.686h-1.686z" class="cls-2" transform="translate(400.156 1857.314)"/>
            <path id="Path_6820" d="M32.166 53.325h1.686v1.686h-1.686z" class="cls-2" transform="translate(367.156 1790.314)"/>
            <g id="holding-hands" transform="translate(376.166 1850.125)">
                <path id="Path_6814" d="M60.543 36.9h-1.28a5.978 5.978 0 0 0-1.693-3.321l-2-2a3.585 3.585 0 0 1-1.033-2.125 3.6 3.6 0 0 0 2.386-3.384 3.658 3.658 0 0 0-.918-2.429 3.578 3.578 0 0 0 .918-2.4 3.658 3.658 0 0 0-.918-2.429 3.578 3.578 0 0 0 .918-2.4A3.657 3.657 0 0 0 56.007 14a3.578 3.578 0 0 0 .918-2.4 3.646 3.646 0 0 0-2.412-3.441V1.206A1.206 1.206 0 0 0 53.307 0h-15.2A1.206 1.206 0 0 0 36.9 1.206v1.266A6.131 6.131 0 0 0 33.458 4.2l-2 2a3.592 3.592 0 0 1-2.033 1.022 3.655 3.655 0 0 0-3.376-2.4 3.544 3.544 0 0 0-2.412.974 3.474 3.474 0 0 0-4.824 0 3.474 3.474 0 0 0-4.824 0 3.544 3.544 0 0 0-2.412-.974A3.665 3.665 0 0 0 8.2 7.236H1.206A1.206 1.206 0 0 0 0 8.442v15.2a1.206 1.206 0 0 0 1.206 1.206h1.247a5.978 5.978 0 0 0 1.726 3.572l2 2a3.586 3.586 0 0 1 1 1.884 3.707 3.707 0 0 0-2.479 3.42 3.515 3.515 0 0 0 .961 2.409 3.582 3.582 0 0 0-.961 2.415 3.515 3.515 0 0 0 .961 2.409 3.582 3.582 0 0 0-.961 2.416 3.515 3.515 0 0 0 .961 2.409A3.543 3.543 0 0 0 7.236 53.6v6.94a1.206 1.206 0 0 0 1.206 1.206h15.2a1.206 1.206 0 0 0 1.206-1.206V59.3a6.078 6.078 0 0 0 3.444-1.7l2-2a3.59 3.59 0 0 1 1.818-.983 3.615 3.615 0 0 0 6 2.261 3.61 3.61 0 0 0 4.824 0 3.61 3.61 0 0 0 4.824 0 3.613 3.613 0 0 0 5.87-1.639h6.914a1.206 1.206 0 0 0 1.206-1.206V51.5a1.206 1.206 0 0 0-2.412 0v1.327H53.79v-13.52c1.25 0 4.6.018 5.548 0v1.336a1.206 1.206 0 0 0 2.412 0v-2.532a1.206 1.206 0 0 0-1.207-1.211zM39.317 2.412H52.1V7.96H39.317zm-6.152 5.495l2-2a3.724 3.724 0 0 1 1.735-.982v4.241a1.206 1.206 0 0 0 1.206 1.206h15.226a1.208 1.208 0 0 1 1.181 1.228 1.168 1.168 0 0 1-1.181 1.181h-4.824a1.206 1.206 0 0 0 0 2.412h4.824a1.208 1.208 0 0 1 1.181 1.231 1.168 1.168 0 0 1-1.181 1.181h-4.824a1.206 1.206 0 0 0 0 2.412h4.824a1.208 1.208 0 0 1 1.181 1.231 1.168 1.168 0 0 1-1.181 1.181h-4.824a1.206 1.206 0 0 0 0 2.412h4.824a1.208 1.208 0 0 1 1.181 1.231 1.168 1.168 0 0 1-1.181 1.181H38.721a6.022 6.022 0 0 1-4.264-1.742 9.02 9.02 0 0 0-4.788-2.867V9.624a5.985 5.985 0 0 0 3.5-1.717zm-.815 28.834A6.86 6.86 0 0 1 29 34.578a8.552 8.552 0 0 0-3.926-2.238 6.919 6.919 0 0 1 2.126-3.217 8.448 8.448 0 0 0 2.249-4.049 6.859 6.859 0 0 1 3.305 2.146 8.375 8.375 0 0 0 3.986 2.214 6.826 6.826 0 0 1-2.185 3.442 8.476 8.476 0 0 0-2.2 3.864zM2.412 9.648H7.96v12.784H2.412zm3.472 17.063a3.587 3.587 0 0 1-.994-1.866h4.276a1.206 1.206 0 0 0 1.206-1.206V8.491a1.286 1.286 0 0 1 1.2-1.255 1.292 1.292 0 0 1 1.206 1.306v4.824a1.206 1.206 0 0 0 2.412 0V8.542a1.292 1.292 0 0 1 1.21-1.306 1.292 1.292 0 0 1 1.206 1.306v4.824a1.206 1.206 0 0 0 2.412 0V8.542a1.21 1.21 0 1 1 2.412 0v4.824a1.206 1.206 0 0 0 2.412 0V8.542a1.208 1.208 0 1 1 2.41-.039v14.651a6.035 6.035 0 0 1-1.765 4.264 9.042 9.042 0 0 0-2.843 4.664H9.583a5.979 5.979 0 0 0-1.7-3.371zm16.548 32.626H9.648V53.79h12.784zm6.152-5.445l-2 2a3.644 3.644 0 0 1-1.741.964v-4.272a1.206 1.206 0 0 0-1.206-1.206H8.417a1.278 1.278 0 0 1-1.3-1.181 1.318 1.318 0 0 1 1.3-1.231h4.85a1.206 1.206 0 0 0 0-2.412h-4.85a1.278 1.278 0 0 1-1.3-1.181 1.318 1.318 0 0 1 1.3-1.231h4.85a1.206 1.206 0 1 0 0-2.412h-4.85a1.278 1.278 0 0 1-1.3-1.181 1.318 1.318 0 0 1 1.3-1.231h4.85a1.206 1.206 0 1 0 0-2.412h-4.85a1.278 1.278 0 0 1-1.3-1.181 1.318 1.318 0 0 1 1.3-1.231h14.611a6.069 6.069 0 0 1 4.264 1.791 8.968 8.968 0 0 0 4.788 2.871v13.02a5.982 5.982 0 0 0-3.496 1.716zm24-16.987a1.206 1.206 0 0 0-1.206 1.206v16.058a1.206 1.206 0 1 1-2.412.012v-5.547a1.206 1.206 0 1 0-2.412 0v5.548a1.206 1.206 0 1 1-2.412 0v-5.548a1.206 1.206 0 1 0-2.412 0v5.548a1.206 1.206 0 1 1-2.412 0v-5.548a1.206 1.206 0 1 0-2.412 0v5.548a1.206 1.206 0 1 1-2.412 0V38.847a6.048 6.048 0 0 1 1.765-4.264 8.933 8.933 0 0 0 2.9-4.914h12.976a5.978 5.978 0 0 0 1.732 3.622l2 2A3.591 3.591 0 0 1 56.8 36.9z" class="cls-3"/>
                <circle id="Ellipse_1045" cx="1.5" cy="1.5" r="1.5" class="cls-3" transform="translate(58.835 44.875)"/>
            </g>
        </g>
    </g>
</svg>
