<svg xmlns="http://www.w3.org/2000/svg" width="70.906" height="82.21" viewBox="0 0 70.906 82.21">
    <defs>
        <style>
            .cls-2,.cls-3{fill:#fff}.cls-2{stroke:#345e86;stroke-width:.5px}
        </style>
    </defs>
    <g id="Group_1541" transform="translate(-373.857 -531.06)">
        <g id="Out_line" transform="translate(310.734 515.937)">
            <path id="Path_6768" fill="#fff" stroke="#345e86" stroke-width="1.5px" d="M102.988 46.134l5.1 5.1a4.2 4.2 0 0 0 5.935 0l14.117-14.117a1.345 1.345 0 0 0 0-1.9l-18.823-18.823a1.345 1.345 0 0 0-1.9 0l-9.8 9.8-5.1-5.1a4.2 4.2 0 0 0-5.935 0L73.411 34.265l-3.083-3.083a1.345 1.345 0 0 0-1.9 0l-4.033 4.033a1.345 1.345 0 0 0 0 1.9l25.936 25.94-1.738 1.738a1.345 1.345 0 0 0-.394.951v7.51L86.855 74.6l-.394-.394a1.345 1.345 0 0 0-1.9 0L64.393 94.371l1.9 1.9 19.218-19.215L98.4 89.944l-4.427 4.427 1.9 1.9 5.378-5.378a1.345 1.345 0 0 0 0-1.9l-1.738-1.738 7.51-7.51 12.494 12.494a1.345 1.345 0 0 0 1.9 0l4.033-4.033a1.345 1.345 0 0 0 0-1.9l-12.494-12.495 1.738-1.738a1.345 1.345 0 0 0 0-1.9l-10.755-10.757a1.345 1.345 0 0 0-1.9 0l-.118.118a7 7 0 0 0-2.014-4.151 1.345 1.345 0 0 0-1.9 0l-1.738 1.738-2.132-2.132zm6.444-2.18l-1.344 1.346a4.173 4.173 0 0 0-.867 1.265l-2.331-2.331 2.41-2.41a1.507 1.507 0 0 1 2.132 2.132zm-1.066-24.709l16.921 16.921-13.166 13.166a1.507 1.507 0 1 1-2.132-2.132l1.344-1.344a4.2 4.2 0 0 0 0-5.935L99.512 28.1zM88.478 23a1.509 1.509 0 0 1 2.132 0l16.053 16.053a4.178 4.178 0 0 0-1.264.868l-17.2 17.2L71.279 40.2zm-19.1 11.034l2.132 2.132-2.133 2.134-2.132-2.132zM122.6 87.255l-2.132 2.132-11.545-11.543 2.132-2.132zm-19.61-24.987l8.854 8.854-4.821 4.821-8.854-8.854 1.738-1.738zm-4.182-3.885a4.366 4.366 0 0 1-.8 5.066l-2.689 2.689a1.345 1.345 0 0 0 0 1.9 6.268 6.268 0 0 1 0 8.854l1.9 1.9a8.919 8.919 0 0 0 2.615-6.239l5.288 5.288-7.51 7.51-8.856-8.851 1.738-1.738a1.345 1.345 0 0 0 .394-.951V66.3zm-4.442.639l-2.132 2.132-2.134-2.132 2.132-2.132z"/>
        </g>
        <path id="Path_6727" d="M3.65 123.689H1.964v1.964H0v1.686h1.964v1.961H3.65v-1.964h1.964v-1.686H3.65z" class="cls-2" transform="translate(381.898 413.353)"/>
        <path id="Path_6771" d="M3.65 123.689H1.964v1.964H0v1.686h1.964v1.961H3.65v-1.964h1.964v-1.686H3.65z" class="cls-2" transform="translate(438.898 444.353)"/>
        <path id="Path_6728" d="M159.055 173.895v1.686h-1.686v-1.686zm0 3.372v1.686h-1.686v-1.686z" class="cls-3" transform="translate(233.309 407.297)"/>
        <path id="Path_6769" d="M159.055 173.895v1.686h-1.686v-1.686zm0 3.372v1.686h-1.686v-1.686z" class="cls-3" transform="translate(257.309 392.297)"/>
        <path id="Path_6770" d="M32.166 53.325h1.686v1.686h-1.686z" class="cls-3" transform="translate(394.156 522.314)"/>
    </g>
</svg>
