<svg xmlns="http://www.w3.org/2000/svg" width="93.818" height="86.825" viewBox="0 0 93.818 86.825">
    <defs>
        <style>
            .cls-1,.cls-2{fill:#fff}.cls-1{stroke:#345e86;stroke-width:.5px}
        </style>
    </defs>
    <g id="Group_1545" transform="translate(-360.648 -1358.639)">
        <path id="Path_6801" d="M3.65 123.689H1.964v1.964H0v1.686h1.964v1.961H3.65v-1.964h1.964v-1.686H3.65z" class="cls-1" transform="translate(360.898 1260.353)"/>
        <path id="Path_6802" d="M3.65 123.689H1.964v1.964H0v1.686h1.964v1.961H3.65v-1.964h1.964v-1.686H3.65z" class="cls-1" transform="translate(435.898 1315.353)"/>
        <path id="Path_6803" d="M159.055 173.895v1.686h-1.686v-1.686zm0 3.372v1.686h-1.686v-1.686z" class="cls-2" transform="translate(211.309 1196.297)"/>
        <path id="Path_6805" d="M159.055 173.895v1.686h-1.686v-1.686zm0 3.372v1.686h-1.686v-1.686z" class="cls-2" transform="translate(288.309 1252.297)"/>
        <path id="Path_6804" d="M32.166 53.325h1.686v1.686h-1.686z" class="cls-2" transform="translate(389.156 1305.314)"/>
        <path id="Path_6806" d="M32.166 53.325h1.686v1.686h-1.686z" class="cls-2" transform="translate(341.156 1381.314)"/>
        <path id="planet-earth" fill="#fff" stroke="#325c84" stroke-width="1.5px" d="M83.708 9.873a34.085 34.085 0 0 0-2.953-6.721 1.266 1.266 0 0 0-1.339-.565 34.078 34.078 0 0 0-6.877 2.566c-4.878 2.435-8.285 5.687-9.855 9.4a18.209 18.209 0 0 0-.567 11.052 35.192 35.192 0 0 0-6.617-5.758 51.26 51.26 0 0 0-5.751-8.815 1.242 1.242 0 0 0-1.926 1.568 49.689 49.689 0 0 1 4.577 6.732l-11.3-2.2L30.357 2.479a17.508 17.508 0 0 1 3.131.32 21.432 21.432 0 0 1 9.694 5 1.242 1.242 0 0 0 1.61-1.889A23.873 23.873 0 0 0 33.965.362C28.279-.75 21.647.71 14.785 4.588a49.547 49.547 0 0 0-8.678 6.2 1.313 1.313 0 0 0-.147 1.7 50.636 50.636 0 0 0 5.566 8.737 38.806 38.806 0 0 0 5.867 6.03q-.867.727-1.685 1.524a28.69 28.69 0 0 0 9.282 47.09 1.242 1.242 0 0 0 .933-2.3 26.2 26.2 0 0 1-5.368-2.953 13.983 13.983 0 0 0-2.107-9.788c-.393-.613.783-3.019 1.485-4.457a23.267 23.267 0 0 0 1.823-4.455 3.4 3.4 0 0 0-1.207-3.72 9.159 9.159 0 0 0-2.95-1.308 6.347 6.347 0 0 1-1.621-.634 16.543 16.543 0 0 1-2.1-3.419 21.216 21.216 0 0 0-2.268-3.728 26.39 26.39 0 0 1 7.834-10.321A21.705 21.705 0 0 0 29.9 32.675c-4.386 3.4-5.8 7.738-3.777 11.906 2.368 4.868 7.242 4.09 11.543 3.4.744-.119 1.514-.241 2.251-.333.277-.035.36.041.416.09.942.838.914 4.838.893 7.759-.027 4.041-.053 7.858 1.452 9.817a3.788 3.788 0 0 0 3.116 1.51 6.256 6.256 0 0 0 2.45-.554c3.743-1.6 7.634-6.427 7.04-10.244-.519-3.337-.862-5.542-.053-7.319.748-1.645 2.557-3.167 6.119-5.111a26.206 26.206 0 0 1-28.479 31.73 1.242 1.242 0 0 0-.271 2.467 28.847 28.847 0 0 0 23.228-8.007 28.672 28.672 0 0 0-4.414-44.532c1.64-1.169 2.861-2.18 3.538-2.767a32.949 32.949 0 1 1-51.687 21.43 1.242 1.242 0 0 0-2.448-.4A35.421 35.421 0 0 0 30 84.233a35.911 35.911 0 0 0 5.848.481 35.445 35.445 0 0 0 32.411-49.568 35.741 35.741 0 0 0 5.722-2.254c4.877-2.435 8.285-5.687 9.854-9.4s1.527-8.424-.127-13.619zM11.679 44a15.455 15.455 0 0 0 2.7 4.164 7.118 7.118 0 0 0 2.484 1.1c2.426.746 2.707 1.112 2.475 2.071a21.662 21.662 0 0 1-1.64 3.949c-1.282 2.623-2.492 5.1-1.345 6.887a11.8 11.8 0 0 1 1.878 6.585 26.45 26.45 0 0 1-7.648-26.762c.365.626.749 1.353 1.092 2zm60.043-24.391L68.2 11.062A23.226 23.226 0 0 1 73.6 7.4a33.126 33.126 0 0 1 3.92-1.652zm8.086-12.9a33.29 33.29 0 0 1 1.552 3.968 23.728 23.728 0 0 1 1.124 5.983l-8.265 3.41zM64.97 15.52a11.819 11.819 0 0 1 1.386-2.409l4.015 9.728-3.6 8.615a32.95 32.95 0 0 1-1.608-4.087c-1.015-3.208-1.871-7.869-.19-11.848zm7.951 15.127a32.97 32.97 0 0 1-3.8 1.608l3.739-8.938 9.517-3.927a11.972 11.972 0 0 1-.83 3.136c-1.681 3.979-5.62 6.613-8.628 8.121zm-44.75-.706c-.438-.086-.871-.191-1.3-.31l13.738-10.069 11.31 2.2c-4.12 3.246-14.146 10.055-23.747 8.174zm-12.552-7.765a48.316 48.316 0 0 1-6.327-8.719l14.392 2.806zM18.16 5.618l6.022 8.213L9.7 11.008a48.923 48.923 0 0 1 8.464-5.39zm9.612 8.914l-7.3-9.958a27.915 27.915 0 0 1 6.936-1.919l10.1 13.774zM27 16.91l10.293 2.006-13.21 9.684a25.676 25.676 0 0 1-6.695-4.643zm33.675 24.234c-4.474 2.384-6.665 4.256-7.7 6.54-1.116 2.452-.707 5.085-.141 8.728.335 2.148-2.219 6.149-5.564 7.582-1.238.53-2.119.467-2.621-.187-.986-1.283-.959-5.167-.938-8.288.029-4.317.055-8.046-1.726-9.631a2.925 2.925 0 0 0-2.371-.7c-.78.1-1.572.223-2.337.345-4.562.727-7.433 1.018-8.92-2.039-2.409-4.952 2.468-8.62 4.677-9.967a7.862 7.862 0 0 0 1.255-.957 36.083 36.083 0 0 0 14.878-5.8 26.343 26.343 0 0 1 11.508 14.374zm0 0" transform="translate(368.711 1360)"/>
    </g>
</svg>
