<svg xmlns="http://www.w3.org/2000/svg" width="89.686" height="80.686" viewBox="0 0 89.686 80.686">
    <defs>
        <style>
            .cls-1,.cls-2{fill:#fff}.cls-1{stroke:#345e86;stroke-width:.5px}
        </style>
    </defs>
    <g id="Group_1547" transform="translate(-359.678 -1665.639)">
        <g id="Group_1546">
            <path id="Path_6808" d="M3.65 123.689H1.964v1.964H0v1.686h1.964v1.961H3.65v-1.964h1.964v-1.686H3.65z" class="cls-1" transform="translate(435.898 1542.353)"/>
            <path id="Path_6809" d="M3.65 123.689H1.964v1.964H0v1.686h1.964v1.961H3.65v-1.964h1.964v-1.686H3.65z" class="cls-1" transform="translate(364.898 1604.353)"/>
            <path id="Path_6810" d="M159.055 173.895v1.686h-1.686v-1.686zm0 3.372v1.686h-1.686v-1.686z" class="cls-2" transform="translate(290.309 1503.297)"/>
            <path id="Path_6811" d="M159.055 173.895v1.686h-1.686v-1.686zm0 3.372v1.686h-1.686v-1.686z" class="cls-2" transform="translate(202.309 1536.297)"/>
            <path id="Path_6812" d="M32.166 53.325h1.686v1.686h-1.686z" class="cls-2" transform="translate(343.156 1612.314)"/>
            <path id="Path_6813" d="M32.166 53.325h1.686v1.686h-1.686z" class="cls-2" transform="translate(414.156 1691.314)"/>
            <g id="Outline" transform="translate(354.063 1652.985)">
                <path id="Path_6807" fill="#fff" stroke="#335d84" stroke-width="1.5px" d="M31.461 30.012l-.056 12.334a1.233 1.233 0 0 1-1.978.977l-1.164-.882a26.907 26.907 0 0 0 2.641 25.9l-2.025 1.408a29.368 29.368 0 0 1-2.2-29.767 1.233 1.233 0 0 1 1.85-.435l.419.318.037-8.221-7.9 2.266 1.246.943a1.233 1.233 0 0 1 .337 1.576 34.4 34.4 0 0 0-2.121 4.671l-2.316-.848a36.882 36.882 0 0 1 1.775-4.066l-2.377-1.8a1.233 1.233 0 0 1 .4-2.169l11.854-3.4a1.233 1.233 0 0 1 1.573 1.191zM19.894 69.6l2.2-1.108a34.326 34.326 0 0 1-3.317-20.312 35.033 35.033 0 0 1 .85-4.168l-2.382-.64a37.479 37.479 0 0 0-.91 4.462A36.779 36.779 0 0 0 19.894 69.6zm27.162-27.563a13.611 13.611 0 0 0-2.228 1.363l1.483 1.971a11.135 11.135 0 0 1 1.824-1.116zM39.4 55.48h2.467v-1.233a11.07 11.07 0 0 1 2.869-7.44l-1.826-1.655a13.531 13.531 0 0 0-3.51 9.095zm46.868 33.3v-11.1H83.8v9.867H71.47v-14.8h1.23v-2.466h-2.15a19.028 19.028 0 0 0-18.267-.022l-.041.022H43.1a4.94 4.94 0 0 0-4.764 6.225l-4.8-2.2a2.257 2.257 0 0 1 .361-.474l2.678-2.678a1.233 1.233 0 0 0 .361-.872V54.247a16.077 16.077 0 0 1 11.742-15.453 1.233 1.233 0 0 0 .732-1.816l-2.91-4.932h12.942l-2.914 4.932a1.233 1.233 0 0 0 .732 1.816A16.077 16.077 0 0 1 69 54.247v13.567h2.47V54.247a18.56 18.56 0 0 0-12.036-17.339l3.231-5.468a1.233 1.233 0 0 0-1.065-1.861H44.336a1.233 1.233 0 0 0-1.062 1.861l3.226 5.468a18.56 18.56 0 0 0-12.031 17.339V69.77l-2.317 2.317a4.708 4.708 0 0 0-.865 1.189l-4.163-1.906a5.323 5.323 0 0 0-6.824 2.286 5.538 5.538 0 0 0 2.277 7.477l14.381 7.191a16.124 16.124 0 0 0 7.17 1.691H61.6v-2.467H44.129a13.643 13.643 0 0 1-6.067-1.431l-14.381-7.19a3.115 3.115 0 0 1-1.209-4.1 2.825 2.825 0 0 1 3.628-1.215l14.024 6.424a1.233 1.233 0 0 0 .514.112H54.2v-2.467H43.1a2.467 2.467 0 0 1 0-4.934h9.455a1.233 1.233 0 0 0 .588-.149l.319-.173A16.571 16.571 0 0 1 69 72.247v15.3h-4.93v2.467h20.967a1.233 1.233 0 0 0 1.233-1.233zm-7.4-6.167a2.467 2.467 0 1 0-2.468 2.468 2.467 2.467 0 0 0 2.47-2.467zM54.2 49.313v4.933a4.933 4.933 0 0 1 0 9.867v2.467h-2.464v-2.466A4.939 4.939 0 0 1 46.8 59.18h2.467a2.47 2.47 0 0 0 2.467 2.467v-4.933a4.933 4.933 0 0 1 0-9.867V44.38H54.2v2.467a4.939 4.939 0 0 1 4.933 4.933h-2.464a2.47 2.47 0 0 0-2.469-2.467zm-2.467 0a2.467 2.467 0 1 0 0 4.933zm2.467 7.4v4.933a2.467 2.467 0 0 0 0-4.933zm3.6-37.893a34.547 34.547 0 0 1 29.192 28.239l2.43-.425a37.007 37.007 0 0 0-57.51-24.044 1.233 1.233 0 0 0-.338 1.676l4.116 6.474a1.233 1.233 0 0 0 1.754.345A26.877 26.877 0 0 1 77.668 63.6l-1.194-.9a1.233 1.233 0 0 0-1.978.978l-.055 12.333a1.233 1.233 0 0 0 1.574 1.189l11.855-3.4a1.233 1.233 0 0 0 .4-2.169l-2.35-1.779a37.24 37.24 0 0 0 3.962-19.387l-2.461.168a34.776 34.776 0 0 1-.265 7.213 34.4 34.4 0 0 1-3.9 11.763 1.233 1.233 0 0 0 .337 1.576l1.22.924-7.9 2.266.037-8.221.449.339a1.233 1.233 0 0 0 1.849-.435 29.339 29.339 0 0 0-42.159-37.71L34.3 23.96a34.418 34.418 0 0 1 23.5-5.14z"/>
            </g>
        </g>
    </g>
</svg>
