<svg xmlns="http://www.w3.org/2000/svg" width="45.146" height="42.787" viewBox="0 0 45.146 42.787">
  <g id="Group_1557" data-name="Group 1557" transform="translate(-754.827 -1708.191)">
    <g id="Outline" transform="translate(738.822 1639.099)">
      <path id="Path_6702" data-name="Path 6702" d="M311.414,328.107l-3.375,2.025-3.375-2.025a.753.753,0,0,0-.774,0l-3.375,2.025-3.375-2.025-.774,1.29,3.4,2.038v2.91l-3.4,2.038a.752.752,0,0,0-.365.645v3.762a.753.753,0,0,0,.365.645l3.762,2.257a.752.752,0,0,0,.774,0l3.375-2.025,3.375,2.025.774-1.29-3.4-2.038v-2.91l3.4-2.038a.752.752,0,0,0,.365-.645v-3.336l3.4-2.038Zm-10.9,14.064-3.01-1.806v-2.91l3.01-1.806,3.01,1.806v2.91Zm6.772-7.825-3.01,1.806-3.01-1.806v-2.91l3.01-1.806,3.01,1.806Z" transform="translate(-253.66 -231.922)"/>
      <path id="Path_6703" data-name="Path 6703" d="M440,480h1.5v1.5H440Z" transform="translate(-384.116 -369.625)"/>
      <path id="Path_6704" data-name="Path 6704" d="M472,480h1.5v1.5H472Z" transform="translate(-413.106 -369.625)"/>
      <path id="Path_6705" data-name="Path 6705" d="M480,328h1.5v1.5H480Z" transform="translate(-420.354 -231.922)"/>
      <path id="Path_6706" data-name="Path 6706" d="M272,328h1.5v1.5H272Z" transform="translate(-231.917 -231.922)"/>
      <path id="Path_6707" data-name="Path 6707" d="M106.864,102.554A7.3,7.3,0,0,0,108.03,102a4.572,4.572,0,0,1,4.728,0,6.065,6.065,0,0,0,6.181,0,4.187,4.187,0,0,1,2.364-.658,4.463,4.463,0,0,1,1.29.167l.432-1.442a5.932,5.932,0,0,0-1.722-.231,5.63,5.63,0,0,0-3.091.846,4.572,4.572,0,0,1-4.727,0,5.632,5.632,0,0,0-3.091-.847,6.843,6.843,0,0,0-.87.053l10.056-10.056a.752.752,0,0,0,.22-.532V76.515h3.01V89.306a.752.752,0,0,0,.22.532l6.02,6.02,1.064-1.064-5.8-5.8V76.385A2.257,2.257,0,0,0,123.562,72h-4.515a2.257,2.257,0,0,0-.752,4.385V88.995l-12.518,12.518a6.073,6.073,0,0,0,4.294,10.367h11.986v-1.5H110.071a4.568,4.568,0,0,1-3.23-7.8ZM119.047,73.5h4.515a.752.752,0,1,1,0,1.5h-4.515a.752.752,0,1,1,0-1.5Z" transform="translate(-79.717)"/>
      <path id="Path_6708" data-name="Path 6708" d="M24.873,155.105l.321-1.47a9.781,9.781,0,0,1-7.61-8.363c.135.068.269.141.408.218a5.637,5.637,0,0,0,3.091.846,5.632,5.632,0,0,0,3.091-.846A5.34,5.34,0,0,1,25.25,145l-.432-1.441a6.72,6.72,0,0,0-1.37.616,4.183,4.183,0,0,1-2.364.659,4.192,4.192,0,0,1-2.365-.658,7.177,7.177,0,0,0-1.2-.559,9.783,9.783,0,0,1,7.673-9.091.752.752,0,0,0,.592-.735v-9.273H28.8v9.273a.752.752,0,0,0,.592.735,9.688,9.688,0,0,1,3.492,1.528l.861-1.234A11.182,11.182,0,0,0,30.3,133.2v-8.813A2.257,2.257,0,0,0,29.548,120H25.034a2.257,2.257,0,0,0-.752,4.385V133.2a11.289,11.289,0,0,0,.592,21.907Zm.161-33.6h4.515a.752.752,0,0,1,0,1.5H25.034a.752.752,0,0,1,0-1.5Z" transform="translate(0 -43.485)"/>
    </g>
    <path id="Path_6723" data-name="Path 6723" d="M3.65,123.689H1.964v1.964H0v1.686H1.964V129.3H3.65v-1.964H5.614v-1.686H3.65Z" transform="translate(791.899 1594.353)"/>
    <path id="Path_6725" data-name="Path 6725" d="M365.247,363.107h1.686v1.686h-1.686Z" transform="translate(391.799 1363.354)"/>
    <path id="Path_6726" data-name="Path 6726" d="M365.247,363.107h1.686v1.686h-1.686Z" transform="translate(398.799 1345.354)"/>
    <path id="Path_6724" data-name="Path 6724" d="M159.055,173.895v1.686h-1.686v-1.686Zm0,3.372v1.686h-1.686v-1.686Z" transform="translate(633.31 1534.297)"/>
  </g>
</svg>
