<svg xmlns="http://www.w3.org/2000/svg" width="47.793" height="44.19" viewBox="0 0 47.793 44.19">
  <g id="Group_1745" data-name="Group 1745" transform="translate(9475.44 -15414.258)">
    <path id="Path_6736" data-name="Path 6736" d="M3.65,123.689H1.964v1.964H0v1.686H1.964V129.3H3.65v-1.964H5.614v-1.686H3.65Z" transform="translate(-9436.422 15308.353)"/>
    <path id="Path_6735" data-name="Path 6735" d="M3.65,123.689H1.964v1.964H0v1.686H1.964V129.3H3.65v-1.964H5.614v-1.686H3.65Z" transform="translate(-9473.422 15304.353)"/>
    <path id="Path_6738" data-name="Path 6738" d="M32.166,53.325h1.686v1.686H32.166Z" transform="translate(-9496.166 15381.314)"/>
    <path id="Path_6971" data-name="Path 6971" d="M32.166,53.325h1.686v1.686H32.166Z" transform="translate(-9464.166 15398.314)"/>
    <path id="Path_6970" data-name="Path 6970" d="M32.166,53.325h1.686v1.686H32.166Z" transform="translate(-9501.166 15366.314)"/>
    <path id="Path_6739" data-name="Path 6739" d="M32.166,53.325h1.686v1.686H32.166Z" transform="translate(-9499.166 15402.314)"/>
    <path id="Path_6737" data-name="Path 6737" d="M159.055,173.895v1.686h-1.686v-1.686Zm0,3.372v1.686h-1.686v-1.686Z" transform="translate(-9599.012 15261.297)"/>
    <path id="Path_6957" data-name="Path 6957" d="M5.807,333.72v-7.072H8.35l.152-.079a19.223,19.223,0,0,1,7.6-2h0a8.722,8.722,0,0,1,1.853.188l.3-1.362a10.135,10.135,0,0,0-2.151-.219h0a20.137,20.137,0,0,0-8.088,2.083H5.807v-1.8H0v1.394H4.413v10.685H0v1.394H5.807v-1.809H9.882l5.446,1.722.42-1.329L10.1,333.72Zm0,0" transform="translate(-9475.34 15117.729)" stroke="#000" stroke-width="0.2"/>
    <path id="Path_6958" data-name="Path 6958" d="M209.8,334.008a5.155,5.155,0,0,0-6.666-1.53l-7.761,4.233a2.932,2.932,0,0,0-2.839-2.215h-6.316a8.81,8.81,0,0,0-1.911-2.749,6.9,6.9,0,0,0-1.892-1.212l-.554,1.279a5.511,5.511,0,0,1,1.536.99l.034.031.038.026a8.977,8.977,0,0,1,1.677,2.622l.186.406h7.2a1.533,1.533,0,1,1,0,3.066h-9.477v1.394h9.477a2.931,2.931,0,0,0,2.782-2.021L203.8,333.7a3.76,3.76,0,0,1,4.4.584l-18.427,11.482-9.992-3.16-.42,1.329,10.6,3.354,20.288-12.641Zm0,0" transform="translate(-9638.046 15111.049)" stroke="#000" stroke-width="0.2"/>
    <path id="Path_6964" data-name="Path 6964" d="M16.508,386.691H17.9v1.394H16.508Zm0,0" transform="translate(-9490.314 15060.108)" stroke="#000" stroke-width="0.2"/>
    <path id="Path_6965" data-name="Path 6965" d="M16.508,356.676H17.9v1.394H16.508Zm0,0" transform="translate(-9490.314 15087.336)" stroke="#000" stroke-width="0.2"/>
    <path id="Path_6966" data-name="Path 6966" d="M112.774,363.327c.411-.165.837-.319,1.265-.457l-.428-1.327c-.459.148-.916.313-1.357.491Zm0,0" transform="translate(-9577.169 15082.921)" stroke="#000" stroke-width="0.2"/>
    <path id="Path_6967" data-name="Path 6967" d="M146.2,353.332a10.5,10.5,0,0,0-4.332.257l.324,1.355a9.2,9.2,0,0,1,3.743-.244Zm0,0" transform="translate(-9604.036 15090.483)" stroke="#000" stroke-width="0.2"/>
    <g id="Group_1744" data-name="Group 1744" transform="translate(-4)">
      <path id="Path_6959" data-name="Path 6959" d="M432.288,29.982l.852-.663a7.605,7.605,0,0,0-.633-.715q-.074-.073-.149-.144l-.741.785c.043.041.086.082.128.124a6.532,6.532,0,0,1,.542.613Zm0,0" transform="translate(-9867.901 15387.993)" stroke="#000" stroke-width="0.3"/>
      <path id="Path_6960" data-name="Path 6960" d="M147.668,186.156l.765-.762.762.765-.765.762Zm0,0" transform="translate(-9604.371 15242.346)" stroke="#000" stroke-width="0.3"/>
      <path id="Path_6961" data-name="Path 6961" d="M189.77,57.523a6.394,6.394,0,0,1-1.876,4.542L177.483,72.516l-.125.126-7.743-7.772-.765.762,8.507,8.54,11.3-11.344a7.52,7.52,0,0,0,1.252-8.944l-.944.523a6.444,6.444,0,0,1,.8,3.117Zm0,0" transform="translate(-9624.031 15364.399)" stroke="#000" stroke-width="0.3"/>
      <path id="Path_6962" data-name="Path 6962" d="M102.25,13.329l.764-.762-.508-.51a6.436,6.436,0,0,1,9.12-9.084l.78.783.636.639,1.416-1.422a6.439,6.439,0,0,1,8.2-.767l.611-.889a7.518,7.518,0,0,0-9.576.894l-.651.654-.651-.654a7.515,7.515,0,1,0-10.649,10.608Zm0,0" transform="translate(-9559.715 15414.407)" stroke="#000" stroke-width="0.3"/>
      <path id="Path_6968" data-name="Path 6968" d="M399.512,42.155a5.37,5.37,0,0,0-3.035-4.82l-.468.973a4.289,4.289,0,0,1,2.424,3.849Zm0,0" transform="translate(-9834.853 15379.757)" stroke="#000" stroke-width="0.3"/>
      <path id="Path_6969" data-name="Path 6969" d="M370.238,30.016v1.079a4.325,4.325,0,0,1,.951.105l.238-1.053A5.4,5.4,0,0,0,370.238,30.016Zm0,0" transform="translate(-9810.936 15386.551)" stroke="#000" stroke-width="0.3"/>
    </g>
  </g>
</svg>
