<svg xmlns="http://www.w3.org/2000/svg" width="52.06" height="50.99" viewBox="0 0 52.06 50.99">
  <g id="Group_1551" data-name="Group 1551" transform="translate(-864.046 -1263.688)">
    <g id="heartbeat" transform="translate(867.229 1227.857)">
      <g id="Group_1481" data-name="Group 1481" transform="translate(32.049 74.999)">
        <g id="Group_1480" data-name="Group 1480">
          <path id="Path_6692" data-name="Path 6692" d="M337.368,341.531a.955.955,0,0,0-1.35.014l-.027.028a.955.955,0,0,0,1.364,1.336l.027-.028A.955.955,0,0,0,337.368,341.531Z" transform="translate(-335.718 -341.258)"/>
        </g>
      </g>
      <g id="Group_1483" data-name="Group 1483" transform="translate(36.03 61.772)">
        <g id="Group_1482" data-name="Group 1482" transform="translate(0 0)">
          <path id="Path_6693" data-name="Path 6693" d="M385.364,206.193h-2.537v-2.537a.955.955,0,1,0-1.909,0v2.537h-2.537a.955.955,0,1,0,0,1.909h2.537v2.537a.955.955,0,1,0,1.909,0V208.1h2.537a.955.955,0,0,0,0-1.909Z" transform="translate(-377.426 -202.702)"/>
        </g>
      </g>
      <g id="Group_1485" data-name="Group 1485" transform="translate(0 46.899)">
        <g id="Group_1484" data-name="Group 1484">
          <path id="Path_6694" data-name="Path 6694" d="M43.6,58.419A13.157,13.157,0,0,0,30.658,46.9a12.759,12.759,0,0,0-8.8,3.486,12.76,12.76,0,0,0-8.8-3.486A13.237,13.237,0,0,0,0,60.274a11.707,11.707,0,0,0,1.271,4.893H.955a.955.955,0,1,0,0,1.909H2.287a54.078,54.078,0,0,0,8.447,10.274,123.05,123.05,0,0,0,10.546,9.275.955.955,0,0,0,1.16,0c.04-.031,4.081-3.129,8.559-7.351a.955.955,0,0,0-1.31-1.389c-3.415,3.22-6.568,5.773-7.829,6.77a122.373,122.373,0,0,1-9.794-8.672,56.783,56.783,0,0,1-7.537-8.907h8.546a.955.955,0,0,0,.918-.691l1.668-5.814,4.619,14.8a.955.955,0,0,0,1.822,0l2.558-8.2h4.262a.955.955,0,0,0,0-1.909H23.96a.955.955,0,0,0-.911.67l-1.856,5.948L16.535,56.96a.955.955,0,0,0-1.829.021l-2.349,8.187H3.4a10.856,10.856,0,0,1-1.492-4.893A11.327,11.327,0,0,1,13.064,48.808a10.915,10.915,0,0,1,8.1,3.578.955.955,0,0,0,1.4,0,10.915,10.915,0,0,1,8.1-3.578,11.224,11.224,0,0,1,10.914,9.081,8.4,8.4,0,1,0,2.026.53ZM40.476,72.71a6.491,6.491,0,1,1,6.491-6.491A6.5,6.5,0,0,1,40.476,72.71Z" transform="translate(0 -46.899)"/>
        </g>
      </g>
    </g>
    <path id="Path_6710" data-name="Path 6710" d="M91.793,16.492h1.686V14.528h1.964V12.842H93.479V10.878H91.793v1.964H89.829v1.686h1.964Z" transform="translate(776.183 1297.811)"/>
    <path id="Path_6744" data-name="Path 6744" d="M91.793,16.492h1.686V14.528h1.964V12.842H93.479V10.878H91.793v1.964H89.829v1.686h1.964Z" transform="translate(812.183 1252.811)"/>
    <path id="Path_6714" data-name="Path 6714" d="M365.247,363.107h1.686v1.686h-1.686Z" transform="translate(526.799 904.354)"/>
    <path id="Path_6745" data-name="Path 6745" d="M365.247,363.107h1.686v1.686h-1.686Z" transform="translate(498.799 936.354)"/>
  </g>
</svg>
