<svg xmlns="http://www.w3.org/2000/svg" width="49.962" height="50.078" viewBox="0 0 49.962 50.078">
  <g id="immune-system" transform="translate(-5.919 -14.729)">
    <g id="Lines_8_" transform="translate(5.919 14.73)">
      <path id="Path_6709" data-name="Path 6709" d="M196.324,197.99h-4.654v2.961h-3.042v4.575h3.042v2.961h4.654v-2.961h3.042v-4.575h-3.042Zm1.356,4.647v1.2h-3.041V206.8h-1.281V203.84h-3.042v-1.2h3.042v-2.961h1.281v2.961Z" transform="translate(-174.758 -181.729)"/>
      <path id="Path_6710" data-name="Path 6710" d="M91.793,16.492h1.686V14.528h1.964V12.842H93.479V10.878H91.793v1.964H89.829v1.686h1.964Z" transform="translate(-51.139 4.171)"/>
      <path id="Path_6711" data-name="Path 6711" d="M3.65,123.689H1.964v1.964H0v1.686H1.964V129.3H3.65v-1.964H5.614v-1.686H3.65Z" transform="translate(2.578 -87.287)"/>
      <path id="Path_6712" data-name="Path 6712" d="M32.166,53.325h1.686v1.686H32.166Z" transform="translate(-32.166 -53.325)"/>
      <path id="Path_6713" data-name="Path 6713" d="M130.383,92.458a3.231,3.231,0,0,0-5.912,2.133l-1.714.8a6.519,6.519,0,0,0-2.529-2.247l.461-.935a2.818,2.818,0,0,0,2.981-1.977,2.75,2.75,0,0,0-1.4-3.181,2.844,2.844,0,0,0-3.458.721,2.731,2.731,0,0,0,.332,3.767l-.519,1.053a6.513,6.513,0,0,0-1.452-.129l.262-.183V69.437l-17.249-6.164-17.25,6.164V92.28l17.25,12.042,11.071-7.729a6.53,6.53,0,0,0-.287,3.841l-1.234.489a2.848,2.848,0,0,0-3.782-.449,2.735,2.735,0,0,0-.859,3.415,2.834,2.834,0,0,0,3.268,1.433,2.773,2.773,0,0,0,2.021-2.842l1.174-.465a6.544,6.544,0,0,0,2.381,2.534l-.707,1.635a3.038,3.038,0,1,0,1.546.673l.7-1.627a6.527,6.527,0,0,0,4.225-.183l.623,1.153a2.769,2.769,0,0,0-.36,3.349,2.836,2.836,0,0,0,3.593,1.092,2.742,2.742,0,0,0,1.43-3.2,2.848,2.848,0,0,0-3.167-2.016l-.643-1.19a6.563,6.563,0,0,0,2.318-7.323l1.6-.748a3.23,3.23,0,0,0,5.289-3.7Zm-9.4-4.149a1.177,1.177,0,1,1,0,2.354A1.177,1.177,0,1,1,120.984,88.309ZM107.6,103.863a1.177,1.177,0,1,1,0-2.354A1.177,1.177,0,1,1,107.6,103.863Zm6.561,5.61a1.355,1.355,0,1,1-1.054-1.6,1.368,1.368,0,0,1,1.054,1.6Zm-3.571-23.4a3.252,3.252,0,0,0-.8,3.344l-9.6,6.7L89.629,88.759V74.481l10.552-3.6,10.552,3.6v11.46Zm.971,3.158a1.544,1.544,0,1,1,2.673-1.534A1.551,1.551,0,0,1,111.557,89.236Zm3.155,1.785a3.2,3.2,0,0,0,1.032-1.206V91.4l-.691.482Zm-14.531,11.245L84.617,91.4V70.625l15.563-5.562,15.563,5.562v16.34a3.257,3.257,0,0,0-3.326-1.779V73.275L100.18,69.1,87.943,73.275V89.639l12.238,8.543,10.543-7.361a3.259,3.259,0,0,0,2.4.781l.5,1.272Zm22.094,4.681c1.565,0,1.653,2.456.049,2.4C120.833,109.287,120.712,106.947,122.275,106.947Zm-.226-6.987a4.831,4.831,0,1,1-2.626-5.331A4.876,4.876,0,0,1,122.048,99.96Zm7.147-5.417a1.543,1.543,0,1,1-1.2-1.824A1.559,1.559,0,0,1,129.2,94.543Z" transform="translate(-80.941 -62.155)"/>
    </g>
    <path id="Path_6714" data-name="Path 6714" d="M365.247,363.107h1.686v1.686h-1.686Z" transform="translate(-325.604 -313.556)"/>
    <path id="Path_6715" data-name="Path 6715" d="M159.055,173.895v1.686h-1.686v-1.686Zm0,3.372v1.686h-1.686v-1.686Z" transform="translate(-141.093 -145.612)"/>
  </g>
</svg>
