<svg xmlns="http://www.w3.org/2000/svg" width="55.614" height="49.149" viewBox="0 0 55.614 49.149">
  <g id="Group_1556" data-name="Group 1556" transform="translate(-426.899 -1579.191)">
    <path id="Path_6730" data-name="Path 6730" d="M3.65,123.689H1.964v1.964H0v1.686H1.964V129.3H3.65v-1.964H5.614v-1.686H3.65Z" transform="translate(426.899 1493.353)"/>
    <path id="Path_6727" data-name="Path 6727" d="M3.65,123.689H1.964v1.964H0v1.686H1.964V129.3H3.65v-1.964H5.614v-1.686H3.65Z" transform="translate(476.899 1465.353)"/>
    <path id="Path_6729" data-name="Path 6729" d="M32.166,53.325h1.686v1.686H32.166Z" transform="translate(397.155 1553.314)"/>
    <path id="Path_6728" data-name="Path 6728" d="M159.055,173.895v1.686h-1.686v-1.686Zm0,3.372v1.686h-1.686v-1.686Z" transform="translate(295.31 1405.297)"/>
    <g id="sprout" transform="translate(434 1581.098)">
      <path id="Path_6716" data-name="Path 6716" d="M45.883,45.879h-1.5A3.335,3.335,0,0,0,42.6,43.534a3.2,3.2,0,0,0-1.785-.271,3,3,0,0,0-3.571-2.107c-.023-.164,0-7.777,0-7.777l2.289-2.289H41.45a4.522,4.522,0,0,0,4.517-4.517V24.733a1.047,1.047,0,0,0-1.046-1.046H43.08A4.522,4.522,0,0,0,38.563,28.2v1.922L37.239,31.45V23.636L38.6,22.277a4.522,4.522,0,0,0,0-6.388l-1.3-1.3a1.046,1.046,0,0,0-1.479,0l-1.3,1.3a4.522,4.522,0,0,0,0,6.388l1.359,1.359v11.9l-1.314-1.314V31.407A6.07,6.07,0,0,0,28.5,25.344h-2.73a1.047,1.047,0,0,0-1.046,1.046v2.73a6.07,6.07,0,0,0,6.063,6.063H33.6l2.279,2.279V39.94A7.906,7.906,0,0,0,31.1,37.8a7.336,7.336,0,0,0-1.011.011.682.682,0,0,0,.1,1.361,6.038,6.038,0,0,1,.808-.012A6.957,6.957,0,0,1,36,42.136a1.141,1.141,0,0,0,1.293.417,1.661,1.661,0,0,1,2.237,1.223,1.133,1.133,0,0,0,1.321.861,1.889,1.889,0,0,1,1.155.131,1.917,1.917,0,0,1,.965,1.112H21.628a1.438,1.438,0,0,1,.6-.976,1.39,1.39,0,0,1,.928-.192,1.14,1.14,0,0,0,1.244-.9,5.685,5.685,0,0,1,.945-2.2,5.459,5.459,0,0,1,2.03-1.707.682.682,0,0,0-.608-1.221,6.808,6.808,0,0,0-2.53,2.132,7.008,7.008,0,0,0-1.131,2.52,2.968,2.968,0,0,0-.412.008,3.054,3.054,0,0,0-1.638-1.984,3.089,3.089,0,0,0-2.176-.152,8.222,8.222,0,0,0-6.357-3.423V33.465l2.284-2.284h1.922a4.522,4.522,0,0,0,4.517-4.517V24.824A1.047,1.047,0,0,0,20.2,23.778H18.358a4.522,4.522,0,0,0-4.517,4.517v1.922l-1.319,1.319V21.187L14.806,18.9h1.922a4.522,4.522,0,0,0,4.517-4.517V12.546A1.047,1.047,0,0,0,20.2,11.5H18.358a4.522,4.522,0,0,0-4.517,4.517v1.922l-1.319,1.319V10.184l1.359-1.359a4.522,4.522,0,0,0,0-6.388l-1.3-1.3a1.046,1.046,0,0,0-1.479,0l-1.3,1.3a4.522,4.522,0,0,0,0,6.388l1.359,1.359V23.35L9.839,22.031V19.22a6.008,6.008,0,0,0-.6-2.632.682.682,0,1,0-1.229.593,4.654,4.654,0,0,1,.464,2.039v1.447L5.8,18a.682.682,0,0,0-.965.965L7.51,21.632H6.063a4.7,4.7,0,0,1-4.7-4.7V14.521H3.776a4.693,4.693,0,0,1,2.386.65A.682.682,0,0,0,6.855,14a6.059,6.059,0,0,0-3.079-.839H1.046A1.047,1.047,0,0,0,0,14.2v2.73A6.07,6.07,0,0,0,6.063,23H8.874l2.284,2.284V36.992L10.3,36.13V33.74a5.338,5.338,0,0,0-5.332-5.332H2.656A1.047,1.047,0,0,0,1.61,29.455v2.309A5.338,5.338,0,0,0,6.941,37.1H9.332l.974.974a7.221,7.221,0,0,0-4.211,2.749,7.02,7.02,0,0,0-1.13,2.52,2.7,2.7,0,0,0-1.622.42,2.825,2.825,0,0,0-1.228,2.12H.682a.682.682,0,1,0,0,1.364h45.2a.682.682,0,1,0,0-1.364ZM39.927,28.2a3.156,3.156,0,0,1,3.153-3.153H44.6v1.522a3.156,3.156,0,0,1-3.153,3.153h-.558l1.376-1.376a.682.682,0,1,0-.965-.965l-1.376,1.376ZM33.2,32.854l-2.671-2.671a.682.682,0,0,0-.965.965l2.671,2.671H30.785a4.7,4.7,0,0,1-4.7-4.7V26.708H28.5a4.7,4.7,0,0,1,4.7,4.7v1.447Zm3.36-13.775a.682.682,0,0,0-.682.682v1.946l-.394-.394a3.156,3.156,0,0,1,0-4.458l1.077-1.077,1.077,1.077a3.156,3.156,0,0,1,0,4.458l-.395.395V19.761a.682.682,0,0,0-.682-.682ZM15.205,28.295a3.156,3.156,0,0,1,3.153-3.153H19.88v1.522a3.156,3.156,0,0,1-3.153,3.153H16.17l1.376-1.376a.682.682,0,0,0-.965-.965l-1.376,1.376Zm0-12.278a3.156,3.156,0,0,1,3.153-3.153H19.88v1.522a3.156,3.156,0,0,1-3.153,3.153H16.17l1.376-1.376a.682.682,0,0,0-.965-.965l-1.376,1.376ZM8.932,34.767,6.783,32.618a.682.682,0,0,0-.965.965l2.149,2.149H6.942a3.972,3.972,0,0,1-3.967-3.967V29.773H4.965a3.972,3.972,0,0,1,3.967,3.967ZM11.158,6.308V8.255l-.394-.394a3.156,3.156,0,0,1,0-4.458L11.84,2.325,12.917,3.4a3.156,3.156,0,0,1,0,4.458l-.394.394V6.308a.682.682,0,1,0-1.364,0Zm9.1,39.571H11.895l-.055,0-.055,0h-8.3a1.438,1.438,0,0,1,.6-.976,1.4,1.4,0,0,1,.929-.192,1.138,1.138,0,0,0,1.244-.9,5.7,5.7,0,0,1,.945-2.2c1.943-2.705,5.611-2.457,5.647-2.454a6.954,6.954,0,0,1,5.015,2.977,1.14,1.14,0,0,0,1.292.416,1.739,1.739,0,0,1,1.314.042,1.705,1.705,0,0,1,.932,1.221,2.84,2.84,0,0,0-1.148,2.063Z"/>
    </g>
  </g>
</svg>
