<svg xmlns="http://www.w3.org/2000/svg" width="47.415" height="44.317" viewBox="0 0 47.415 44.317">
  <g id="Group_1552" data-name="Group 1552" transform="translate(-389.099 -1425.725)">
    <path id="Path_6734" data-name="Path 6734" d="M91.75,16.369H93.4V14.448H95.32V12.8H93.4V10.878H91.75V12.8H89.829v1.649H91.75Z" transform="translate(299.27 1414.847)"/>
    <path id="Path_6731" data-name="Path 6731" d="M3.65,123.689H1.964v1.964H0v1.686H1.964V129.3H3.65v-1.964H5.614v-1.686H3.65Z" transform="translate(430.899 1321.353)"/>
    <path id="Path_6733" data-name="Path 6733" d="M32.166,53.325h1.686v1.686H32.166Z" transform="translate(383.155 1374.314)"/>
    <path id="Path_6732" data-name="Path 6732" d="M159.055,173.895v1.686h-1.686v-1.686Zm0,3.372v1.686h-1.686v-1.686Z" transform="translate(234.31 1273.297)"/>
    <g id="Out_line" data-name="Out line" transform="translate(376.96 1412.959)">
      <path id="Path_6717" data-name="Path 6717" d="M285.981,275.571a.685.685,0,0,0-.45-.492l-3.955-1.318-7.417-7.418-.968.968.586.586-2.372.791.433,1.3,3.022-1.007,5.863,5.863a.686.686,0,0,0,.268.165l3.057,1.019-8.019,8.019-.885-2.656,5.178-5.178-.968-.968-4.994,4.994-7.048-7.048-.968.968,7.418,7.417,1.318,3.955a.685.685,0,0,0,1.134.268l9.586-9.586A.685.685,0,0,0,285.981,275.571Z" transform="translate(-228.918 -228.916)"/>
      <path id="Path_6718" data-name="Path 6718" d="M16.468,26.92l3.955,1.318,7.418,7.418.968-.968L21.761,27.64l4.993-4.993-.968-.968-5.178,5.178-2.656-.885,8.019-8.019,1.019,3.057a.685.685,0,0,0,.165.268l8.217,8.217.968-.968-8.1-8.1L26.92,16.468a.685.685,0,0,0-1.134-.268L16.2,25.786a.685.685,0,0,0,.268,1.134Z" transform="translate(-0.001)"/>
      <path id="Path_6719" data-name="Path 6719" d="M0,0H1.369V7.747H0Z" transform="translate(27.152 25.386) rotate(-45)"/>
      <path id="Path_6720" data-name="Path 6720" d="M0,0H1.369V7.747H0Z" transform="translate(24.413 28.124) rotate(-45)"/>
      <path id="Path_6721" data-name="Path 6721" d="M44.744,101.565a.685.685,0,0,0-.4-.5l-.029-.012,6.406-6.406a.685.685,0,0,0,0-.968L45.241,88.2a.685.685,0,0,0-.968,0l-.507.507a2.058,2.058,0,0,0-1.723,1.722l-1.7,1.7a2.058,2.058,0,0,0-1.723,1.723l-3.331,3.331-.533-.228A.685.685,0,0,0,34,97.1l-13.58,13.58L16.467,112a.685.685,0,0,0-.268,1.134l9.586,9.586a.685.685,0,0,0,1.134-.268l1.318-3.955,16.319-16.319a.685.685,0,0,0,.188-.614ZM39.01,95.4a2.052,2.052,0,0,0,1.638.817V94.847a.685.685,0,0,1,0-1.369.685.685,0,0,0,.484-.2l1.3-1.3a2.052,2.052,0,0,0,1.638.817V91.424a.685.685,0,1,1,0-1.369.685.685,0,0,0,.484-.2l.2-.2,4.509,4.509-2.01,2.01a.684.684,0,0,1,.24-1.325V93.478a2.053,2.053,0,0,0-1.237,3.693l-3.3,3.3-2.942-1.261a.681.681,0,0,1,.634-.94V96.9a2.057,2.057,0,0,0-2.025,1.713l-1.979-.848Zm-6.193,4.823,2.939,8.818L34.1,110.7l-2.939-8.818Zm-5.663,17.42a.685.685,0,0,0-.165.268l-1.019,3.057-8.019-8.019,2.656-.885,5.178,5.178.968-.968L21.76,111.28l8.318-8.318,2.939,8.818Zm9.685-9.685L33.9,99.14l.742-.742L40,100.693l-1.2,1.2.968.968,1.589-1.589,1.52.651Z" transform="translate(0 -65.838)"/>
      <path id="Path_6722" data-name="Path 6722" d="M322.054,164.108v-1.369a.685.685,0,1,1,0-1.369V160a2.054,2.054,0,1,0,0,4.108Z" transform="translate(-277.982 -131.675)"/>
    </g>
  </g>
</svg>
