<svg xmlns="http://www.w3.org/2000/svg" width="46.58" height="43.049" viewBox="0 0 46.58 43.049">
  <g id="Group_1550" data-name="Group 1550" transform="translate(-452.046 -1266.688)">
    <path id="Path_6761" data-name="Path 6761" d="M91.793,16.492h1.686V14.528h1.964V12.842H93.479V10.878H91.793v1.964H89.829v1.686h1.964Z" transform="translate(403.183 1290.811)"/>
    <path id="Path_6762" data-name="Path 6762" d="M91.793,16.492h1.686V14.528h1.964V12.842H93.479V10.878H91.793v1.964H89.829v1.686h1.964Z" transform="translate(385.183 1255.811)"/>
    <path id="Path_6763" data-name="Path 6763" d="M365.247,363.107h1.686v1.686h-1.686Z" transform="translate(100.799 909.354)"/>
    <path id="Path_6764" data-name="Path 6764" d="M365.247,363.107h1.686v1.686h-1.686Z" transform="translate(86.799 932.354)"/>
    <g id="delivery" transform="translate(457.357 1236.851)">
      <g id="Group_1494" data-name="Group 1494" transform="translate(0 38.827)">
        <path id="Path_6746" data-name="Path 6746" d="M13.921,114.652H1.176V86.6H5.007a.588.588,0,0,0,0-1.176H.588A.588.588,0,0,0,0,86.01v29.23a.588.588,0,0,0,.588.588H13.921a.588.588,0,1,0,0-1.176Z" transform="translate(0 -81.768)"/>
        <path id="Path_6747" data-name="Path 6747" d="M38,325.09h1.3v4.692a.588.588,0,0,0,.588.588h2.436a.588.588,0,0,0,.588-.588V325.09h1.3a.56.56,0,0,0,.416-1l-3.109-3.109a.588.588,0,0,0-.832,0l-3.109,3.109C37.118,324.707,37.418,325.1,38,325.09Zm3.109-2.866,1.689,1.689c-.416-.082-1.06.039-1.06.588v4.692H40.478V324.5c0-.549-.643-.67-1.06-.588Z" transform="translate(-34.426 -298.693)"/>
        <path id="Path_6748" data-name="Path 6748" d="M121.619,40.045H117.3v-.63a.588.588,0,0,0-.588-.588h-4.834a.588.588,0,0,0-.588.588v.63H107a.588.588,0,0,0-.588.588v1.848H89.628a.588.588,0,1,0,0,1.176h4.019v7.479a.588.588,0,0,0,.833.535l2.78-1.275,2.78,1.275a.6.6,0,0,0,.833-.535V43.657h5.541V52.8a.588.588,0,0,0,1.176,0V41.221h1.26V57.684a.588.588,0,0,0,.588.588h9.743a.588.588,0,0,0,.588-.588V41.221h1.259v18.31H107.592V55.366a.588.588,0,1,0-1.176,0v4.754a.588.588,0,0,0,.588.588h4.284v11H98.543a.588.588,0,0,0,0,1.176h13.333a.588.588,0,0,0,.588-.588V60.707h9.155a.588.588,0,0,0,.588-.588V40.633A.588.588,0,0,0,121.619,40.045ZM99.7,50.219l-2.192-1.005a.588.588,0,0,0-.491,0l-2.192,1.005V43.657H99.7ZM116.122,40v1.26h-3.658V40ZM118.6,57.1h-8.567V41.221h1.259v.63a.588.588,0,0,0,.588.588h4.834a.588.588,0,0,0,.588-.588v-.63h1.3V57.1Z" transform="translate(-82.058 -38.827)"/>
        <path id="Path_6749" data-name="Path 6749" d="M401.327,100.952h-2.9a.588.588,0,0,0,0,1.176h2.9a.588.588,0,0,0,0-1.176Z" transform="translate(-366.637 -96.08)"/>
        <path id="Path_6750" data-name="Path 6750" d="M401.327,132.015h-2.9a.588.588,0,0,0,0,1.176h2.9a.588.588,0,0,0,0-1.176Z" transform="translate(-366.637 -124.708)"/>
        <path id="Path_6751" data-name="Path 6751" d="M401.327,163.077h-2.9a.588.588,0,0,0,0,1.176h2.9a.588.588,0,0,0,0-1.176Z" transform="translate(-366.637 -153.334)"/>
        <path id="Path_6752" data-name="Path 6752" d="M401.327,194.139h-2.9a.588.588,0,0,0,0,1.176h2.9a.588.588,0,0,0,0-1.176Z" transform="translate(-366.637 -181.96)"/>
        <path id="Path_6753" data-name="Path 6753" d="M401.327,225.2h-2.9a.588.588,0,0,0,0,1.176h2.9a.588.588,0,0,0,0-1.176Z" transform="translate(-366.637 -210.586)"/>
        <path id="Path_6754" data-name="Path 6754" d="M248.5,399.122a.588.588,0,0,0,.588.588H256.4a.588.588,0,0,0,.588-.588v-2.49a.588.588,0,0,0-.588-.588h-7.307a.588.588,0,0,0-.588.588Zm1.176-1.9h6.131v1.313h-6.131Z" transform="translate(-229.013 -368.032)"/>
        <path id="Path_6755" data-name="Path 6755" d="M249.088,366.145H256.4a.588.588,0,1,0,0-1.176h-7.308a.588.588,0,0,0,0,1.176Z" transform="translate(-229.013 -339.394)"/>
      </g>
      <g id="Group_1495" data-name="Group 1495" transform="translate(29.217 43.699)">
        <path id="Path_6756" data-name="Path 6756" d="M373.178,226.378a.588.588,0,1,1,.588-.588A.588.588,0,0,1,373.178,226.378Z" transform="translate(-372.59 -215.459)"/>
        <path id="Path_6757" data-name="Path 6757" d="M373.178,195.315a.588.588,0,1,1,.588-.588A.588.588,0,0,1,373.178,195.315Z" transform="translate(-372.59 -186.832)"/>
        <path id="Path_6758" data-name="Path 6758" d="M373.178,164.253a.588.588,0,1,1,.588-.588A.588.588,0,0,1,373.178,164.253Z" transform="translate(-372.59 -158.205)"/>
        <path id="Path_6759" data-name="Path 6759" d="M373.178,133.192a.588.588,0,1,1,.588-.588A.588.588,0,0,1,373.178,133.192Z" transform="translate(-372.59 -129.58)"/>
        <path id="Path_6760" data-name="Path 6760" d="M373.178,102.128a.588.588,0,1,1,.588-.588A.588.588,0,0,1,373.178,102.128Z" transform="translate(-372.59 -100.952)"/>
      </g>
    </g>
  </g>
</svg>
