<svg xmlns="http://www.w3.org/2000/svg" width="51.687" height="45.809" viewBox="0 0 51.687 45.809">
  <g id="Group_1553" data-name="Group 1553" transform="translate(-927.321 -1424.191)">
    <g id="Page-1" transform="translate(933 1429.47)">
      <g id="_021---Suppliments" data-name="021---Suppliments">
        <path id="Shape" d="M20.37,17.422a.676.676,0,0,0,.55-.282,5.413,5.413,0,0,0,.836-1.789h6.251a.676.676,0,1,0,0-1.351H21.2a.676.676,0,0,0-.669.58,4.053,4.053,0,0,1-.714,1.774.676.676,0,0,0,.549,1.069Z" transform="translate(-6.391 -4.543)"/>
        <path id="Shape-2" data-name="Shape" d="M35.676,15.351h1.351a.676.676,0,0,0,0-1.351H35.676a.676.676,0,1,0,0,1.351Z" transform="translate(-11.357 -4.543)"/>
        <path id="Shape-3" data-name="Shape" d="M38.3,22.643a1.429,1.429,0,0,1-1.148-1.4v-.429a2.027,2.027,0,0,0,1.351-1.9v-2.7a2.027,2.027,0,0,0-2.027-2.027H33.1V13.51a2.7,2.7,0,0,0-2.7-2.7,1.351,1.351,0,0,1-1.351-1.351V8.106A2.027,2.027,0,0,0,31.073,6.08V2.027A2.027,2.027,0,0,0,29.047,0H11.484A2.027,2.027,0,0,0,9.457,2.027V6.08a2.027,2.027,0,0,0,2.027,2.027V9.457a1.351,1.351,0,0,1-1.351,1.351,2.7,2.7,0,0,0-2.7,2.7v8.782H2.7a1.351,1.351,0,0,0-1.351,1.351v2.7a1.346,1.346,0,0,0,.676,1.163v.473a.805.805,0,0,1-.544.761A2.094,2.094,0,0,0,0,30.7v7.8A2.027,2.027,0,0,0,2.027,40.53H38.5A2.027,2.027,0,0,0,40.53,38.5V25.365A2.783,2.783,0,0,0,38.3,22.643Zm-1.148-6.431v2.7a.676.676,0,0,1-.676.676H27.02a.676.676,0,0,1-.676-.676v-2.7a.676.676,0,0,1,.676-.676h9.457A.676.676,0,0,1,37.153,16.212ZM10.808,6.08V2.027a.676.676,0,0,1,.676-.676H29.047a.676.676,0,0,1,.676.676V6.08a.676.676,0,0,1-.676.676H27.7V4.729a.676.676,0,1,0-1.351,0V6.755H24.994V4.729a.676.676,0,0,0-1.351,0V6.755H22.292V4.729a.676.676,0,0,0-1.351,0V6.755H19.59V4.729a.676.676,0,0,0-1.351,0V6.755H16.888V4.729a.676.676,0,1,0-1.351,0V6.755H14.186V4.729a.676.676,0,1,0-1.351,0V6.755H11.484A.676.676,0,0,1,10.808,6.08Zm-.676,6.08a2.7,2.7,0,0,0,2.7-2.7V8.106H27.7V9.457a2.7,2.7,0,0,0,2.7,2.7,1.351,1.351,0,0,1,1.351,1.351v.676H27.02a2.027,2.027,0,0,0-2.027,2.027v2.7a2.027,2.027,0,0,0,1.351,1.9v.429a1.429,1.429,0,0,1-1.148,1.4,2.783,2.783,0,0,0-2.229,2.722V38.5a2,2,0,0,0,.124.676H12.035a2,2,0,0,0,.124-.676V34.451h6.08a2.027,2.027,0,0,0,2.027-2.027V18.914a2.027,2.027,0,0,0-2.027-2.027H8.782V13.51a1.351,1.351,0,0,1,1.351-1.351Zm-1.351,6.08h9.457a.676.676,0,0,1,.676.676v13.51a.676.676,0,0,1-.676.676h-6.08v-2.31A2.158,2.158,0,0,0,10.7,28.75a.765.765,0,0,1-.571-.685v-.557a1.346,1.346,0,0,0,.676-1.163v-2.7a1.351,1.351,0,0,0-1.351-1.351H8.782Zm-6.08,5.4H9.457v2.7H2.7ZM1.351,32.424H5.4a.676.676,0,0,1,.676.676v2.7a.676.676,0,0,1-.676.676H1.351Zm0,6.08v-.676H5.4A2.027,2.027,0,0,0,7.431,35.8V33.1A2.027,2.027,0,0,0,5.4,31.073H1.351V30.7a.765.765,0,0,1,.571-.685,2.158,2.158,0,0,0,1.456-2.039V27.7h5.4v.37a2.094,2.094,0,0,0,1.486,1.963.805.805,0,0,1,.54.761V38.5a.676.676,0,0,1-.676.676H2.027A.676.676,0,0,1,1.351,38.5Zm37.153.676H24.994a.676.676,0,0,1-.676-.676V25.365a1.429,1.429,0,0,1,1.148-1.4A2.783,2.783,0,0,0,27.7,21.245v-.3H35.8v.3a2.783,2.783,0,0,0,2.229,2.722,1.429,1.429,0,0,1,1.148,1.4v.98H30.4a2.027,2.027,0,0,0-2.027,2.027v6.755A2.027,2.027,0,0,0,30.4,37.153h8.782V38.5A.676.676,0,0,1,38.5,39.179Zm.676-3.378H30.4a.676.676,0,0,1-.676-.676V28.371A.676.676,0,0,1,30.4,27.7h8.782Z"/>
      </g>
    </g>
    <path id="Path_6711" data-name="Path 6711" d="M3.65,123.689H1.964v1.964H0v1.686H1.964V129.3H3.65v-1.964H5.614v-1.686H3.65Z" transform="translate(927.899 1315.353)"/>
    <path id="Path_6740" data-name="Path 6740" d="M3.65,123.689H1.964v1.964H0v1.686H1.964V129.3H3.65v-1.964H5.614v-1.686H3.65Z" transform="translate(967.899 1305.353)"/>
    <path id="Path_6712" data-name="Path 6712" d="M32.166,53.325h1.686v1.686H32.166Z" transform="translate(945.155 1395.314)"/>
    <path id="Path_6741" data-name="Path 6741" d="M32.166,53.325h1.686v1.686H32.166Z" transform="translate(895.155 1403.314)"/>
    <path id="Path_6715" data-name="Path 6715" d="M159.055,173.895v1.686h-1.686v-1.686Zm0,3.372v1.686h-1.686v-1.686Z" transform="translate(778.31 1250.297)"/>
  </g>
</svg>
