<svg xmlns="http://www.w3.org/2000/svg" width="168" height="22.6" viewBox="0 0 168 22.6">
    <defs>
        <style>
            .cls-1{fill:#fff}
        </style>
    </defs>
    <g id="Group_1380" transform="translate(-1117.38 -1853.332)">
        <path id="Path_6645" d="M1117.38 1853.4h22.342l-11.148 11.279 11.148 11.279h-22.342z" class="cls-1" transform="translate(0 -.027)"/>
        <path id="Path_6646" d="M1153.437 1853.4l-11.157 11.279 11.157 11.279h11.139l-11.176-11.34 11.176-11.218z" class="cls-1" transform="translate(-9.719 -.027)"/>
        <g id="Group_1379" transform="translate(1159.156 1853.332)">
            <g id="Group_1378">
                <path id="Path_6647" d="M1201.36 1875.937l-5.379-8.019-3.059 3.478v4.541h-7.022v-22.545h7.021v9.727l7.537-9.727h8.213l-8.31 9.5 8.728 13.044z" class="cls-1" transform="translate(-1185.9 -1853.355)"/>
                <path id="Path_6648" d="M1222.98 1864.614c0-6.508 5.052-11.282 11.748-11.282a11.985 11.985 0 0 1 9.3 3.905l-4.37 3.937a5.72 5.72 0 0 0-4.556-2.139 5.214 5.214 0 0 0-5.269 5.579c0 3.441 2.324 5.548 5.207 5.548a6.333 6.333 0 0 0 4.711-2.169l4.339 3.905a11.269 11.269 0 0 1-9.112 4c-6.821.002-11.998-4.775-11.998-11.284z" class="cls-1" transform="translate(-1200.373 -1853.332)"/>
                <path id="Path_6649" d="M1263.334 1875.937l9.983-22.545h6.281l-9.983 22.545z" class="cls-1" transform="translate(-1216.123 -1853.355)"/>
                <path id="Path_6650" d="M1295.075 1875.937v-22.545h6.957v16.748h10.79v5.8z" class="cls-1" transform="translate(-1228.512 -1853.355)"/>
                <path id="Path_6651" d="M1328.086 1875.937v-22.545h6.957v16.748h10.79v5.8z" class="cls-1" transform="translate(-1241.397 -1853.355)"/>
                <path id="Path_6652" d="M1358.351 1864.643c0-6.5 5.046-11.269 11.733-11.269a11.972 11.972 0 0 1 9.287 3.9l-4.365 3.932a5.712 5.712 0 0 0-4.551-2.136 5.208 5.208 0 0 0-5.263 5.573c0 3.436 2.322 5.542 5.2 5.542a6.328 6.328 0 0 0 4.706-2.167l4.334 3.9a11.256 11.256 0 0 1-9.1 3.994c-6.811-.001-11.981-4.768-11.981-11.269z" class="cls-1" transform="translate(-1253.21 -1853.349)"/>
            </g>
        </g>
    </g>
</svg>
